<svg width="58" height="58" viewBox="0 0 58 58" fill="none" xmlns="http://www.w3.org/2000/svg">
<path id="Vector" d="M56.3007 30.7495C57.3855 31.9118 58.0002 33.4874 58.0002 35.1276C58.0002 36.7677 57.3855 38.3433 56.3007 39.5056C55.2158 40.6679 53.7453 41.3265 52.2145 41.3265H5.92878C4.39436 41.3265 2.92262 40.6679 1.8378 39.5056C0.752977 38.3433 0.143066 36.7677 0.143066 35.1276C0.143066 33.4874 0.752977 31.9118 1.8378 30.7495C2.92262 29.5872 4.39436 28.9286 5.92878 28.9286H52.2145C53.7453 28.9286 55.2158 29.5872 56.3007 30.7495ZM55.5051 46.0662C55.8667 46.4536 56.0716 46.9831 56.0716 47.5255V49.5918C56.0716 51.6711 55.264 53.8924 53.8176 55.4421C52.3712 56.9919 50.298 57.8571 48.3574 57.8571H9.78592C7.74043 57.8571 5.77811 56.9919 4.33168 55.4421C2.88405 53.8924 2.07164 51.6711 2.07164 49.5918V47.5255C2.07164 46.9831 2.27534 46.4536 2.63695 46.0662C2.99856 45.6787 3.48914 45.4592 4.00021 45.4592H54.1431C54.6493 45.4592 55.1435 45.6787 55.5051 46.0662ZM4.28829 24.3827C3.7507 24.0985 3.28061 23.6982 2.91177 23.1945C2.54293 22.6908 2.2874 22.1097 2.16204 21.4898C2.03668 20.857 2.04753 20.2113 2.19097 19.5914C4.84155 8.39703 15.873 0 29.0716 0C42.2703 0 53.2993 8.39703 55.9511 19.5914C56.0957 20.2113 56.1078 20.857 55.9752 21.4898C55.8547 22.1097 55.6015 22.6908 55.2279 23.1945C54.7578 23.6982 54.3962 24.0985 53.8538 24.3827C53.3234 24.6539 52.7328 24.7959 52.1301 24.7959H6.00954C5.41409 24.7959 4.82467 24.6539 4.28829 24.3827ZM43.1382 10.9386C42.7765 11.3261 42.5716 11.8555 42.5716 12.398C42.5716 12.8112 42.6801 13.2116 42.8971 13.5474C43.1141 13.8831 43.3069 14.1543 43.7649 14.3093C44.1145 14.3481 44.5002 14.503 44.8739 14.4255C45.2475 14.3481 45.5971 14.1543 45.8623 13.8573C46.1395 13.5732 46.3203 13.1987 46.3926 12.7983C46.4649 12.398 46.3203 11.9847 46.2841 11.6102C46.1395 11.1194 45.8864 10.9128 45.573 10.6803C45.2596 10.4479 44.8859 10.2154 44.5002 10.2154C43.994 10.2154 43.4998 10.5512 43.1382 10.9386ZM27.7096 6.80467C27.348 7.19211 27.1431 7.71773 27.1431 8.26531C27.1431 8.67341 27.2515 9.07892 27.4685 9.4147C27.6855 9.75048 27.8783 10.0217 28.3364 10.1767C28.6859 10.2154 29.0716 10.3704 29.4453 10.2929C29.819 10.2154 30.1685 10.0217 30.4337 9.72465C30.7109 9.44053 30.8917 9.06601 30.9641 8.66824C31.0364 8.26789 30.8917 7.85204 30.8556 7.47494C30.7109 7.09654 30.4578 6.77368 30.1444 6.54767C29.831 6.32038 29.4574 6.08275 29.0716 6.08275C28.5654 6.08275 28.0712 6.41724 27.7096 6.80467ZM12.281 10.9386C11.9194 11.3261 11.7145 11.8555 11.7145 12.398C11.7145 12.8112 11.823 13.2116 12.0399 13.5474C12.2569 13.8831 12.4498 14.1543 12.9078 14.3093C13.2574 14.3481 13.6431 14.503 14.0167 14.4255C14.3904 14.3481 14.7399 14.1543 15.0051 13.8573C15.2824 13.5732 15.4632 13.1987 15.5355 12.7983C15.6078 12.398 15.4632 11.9847 15.427 11.6102C15.2824 11.1194 15.0292 10.9128 14.7158 10.6803C14.4024 10.4479 14.0288 10.2154 13.6431 10.2154C13.1368 10.2154 12.6426 10.5512 12.281 10.9386Z" fill="#FFCC00"/>
</svg>
