<svg width="57" height="57" viewBox="0 0 57 57" fill="none" xmlns="http://www.w3.org/2000/svg">

<path d="M50.8131 17.3712H42.79V6.72461H5.34875C2.39356 6.72461 0 9.10677 0 12.0479V41.3259H5.34875C5.34875 45.7309 8.94578 49.3108 13.3719 49.3108C17.798 49.3108 21.395 45.7309 21.395 41.3259H37.4412C37.4412 45.7309 41.0383 49.3108 45.4643 49.3108C49.8904 49.3108 53.4875 45.7309 53.4875 41.3259H58.8362V28.0177L50.8131 17.3712ZM13.3719 45.3184C11.1521 45.3184 9.3603 43.5351 9.3603 41.3259C9.3603 39.1167 11.1521 37.3334 13.3719 37.3334C15.5916 37.3334 17.3834 39.1167 17.3834 41.3259C17.3834 43.5351 15.5916 45.3184 13.3719 45.3184ZM49.4759 21.3636L54.731 28.0177H42.79V21.3636H49.4759ZM45.4643 45.3184C43.2446 45.3184 41.4528 43.5351 41.4528 41.3259C41.4528 39.1167 43.2446 37.3334 45.4643 37.3334C47.6841 37.3334 49.4759 39.1167 49.4759 41.3259C49.4759 43.5351 47.6841 45.3184 45.4643 45.3184Z" fill="#FFCC00"/>

</svg>
