<svg width="59" height="58" viewBox="0 0 59 58" fill="none" xmlns="http://www.w3.org/2000/svg">
<path id="Vector" d="M29.1288 0C13.1481 0 0.200195 12.9479 0.200195 28.9286C0.200195 44.9093 13.1481 57.8571 29.1288 57.8571C45.1095 57.8571 58.0573 44.9093 58.0573 28.9286C58.0573 12.9479 45.1095 0 29.1288 0ZM39.9175 36.5107L37.5845 39.4268C37.4314 39.6183 37.2421 39.7776 37.0274 39.8959C36.8127 40.0141 36.5769 40.0889 36.3332 40.116C36.0896 40.1431 35.8431 40.1219 35.6077 40.0537C35.3722 39.9855 35.1525 39.8716 34.9611 39.7185L27.1458 33.9188C26.5997 33.4815 26.1589 32.9271 25.856 32.2966C25.5532 31.666 25.396 30.9754 25.396 30.2758V12.1313C25.396 11.6363 25.5927 11.1616 25.9427 10.8116C26.2927 10.4616 26.7674 10.265 27.2624 10.265H30.9951C31.4901 10.265 31.9648 10.4616 32.3148 10.8116C32.6649 11.1616 32.8615 11.6363 32.8615 12.1313V28.9286L39.627 33.8861C39.8185 34.0393 39.978 34.2287 40.0962 34.4436C40.2144 34.6584 40.2892 34.8944 40.3162 35.1382C40.3431 35.3819 40.3218 35.6286 40.2534 35.8641C40.185 36.0996 40.0709 36.3193 39.9175 36.5107Z" fill="#FFCC00"/>
</svg>
